<?xml version="1.0" encoding="UTF-8" standalone="no"?>
<svg
   xmlns:dc="http://purl.org/dc/elements/1.1/"
   xmlns:cc="http://creativecommons.org/ns#"
   xmlns:rdf="http://www.w3.org/1999/02/22-rdf-syntax-ns#"
   xmlns:svg="http://www.w3.org/2000/svg"
   xmlns="http://www.w3.org/2000/svg"
   xmlns:xlink="http://www.w3.org/1999/xlink"
   xmlns:sodipodi="http://sodipodi.sourceforge.net/DTD/sodipodi-0.dtd"
   xmlns:inkscape="http://www.inkscape.org/namespaces/inkscape"
   inkscape:version="1.0 (1.0+r73+1)"
   sodipodi:docname="thumbs_down.svg"
   id="svg26"
   height="59.16667"
   width="65.08334"
   viewBox="0 0 65.08334 59.16667"
   preserveAspectRatio="none"
   overflow="visible"
   version="1.2">
  <metadata
     id="metadata32">
    <rdf:RDF>
      <cc:Work
         rdf:about="">
        <dc:format>image/svg+xml</dc:format>
        <dc:type
           rdf:resource="http://purl.org/dc/dcmitype/StillImage" />
      </cc:Work>
    </rdf:RDF>
  </metadata>
  <defs
     id="defs30" />
  <sodipodi:namedview
     inkscape:current-layer="svg26"
     inkscape:window-maximized="1"
     inkscape:window-y="27"
     inkscape:window-x="59"
     inkscape:cy="29.583336"
     inkscape:cx="32.541672"
     inkscape:zoom="3.7098588"
     showgrid="false"
     id="namedview28"
     inkscape:window-height="1025"
     inkscape:window-width="1861"
     inkscape:pageshadow="2"
     inkscape:pageopacity="0"
     guidetolerance="10"
     gridtolerance="10"
     objecttolerance="10"
     borderopacity="1"
     bordercolor="#666666"
     pagecolor="#ffffff" />
  <g
     id="g24"
     transform="rotate(180,32.54167,29.583335)">
    <g
       id="g6">
      <use
         height="100%"
         width="100%"
         y="0"
         x="0"
         id="use2"
         vector-effect="non-scaling-stroke"
         filter="url(#filter-1603316190669344)"
         xlink:href="#path-1603316190548326" />
      <path
         id="path4"
         vector-effect="non-scaling-stroke"
         style="fill: #ed1c24;stroke-width:0;stroke-linecap:butt;stroke-linejoin:miter"
         d="m 0,59.16667 h 11.83333 v -35.5 H 0 Z M 65.08333,26.625 c 0,-3.25417 -2.6625,-5.91667 -5.91667,-5.91667 H 40.49958 L 43.31,7.18875 43.39875,6.24208 c 0,-1.21292 -0.50292,-2.33708 -1.30167,-3.13583 L 38.96125,0 19.49542,19.49542 C 18.40084,20.56042 17.75,22.03959 17.75,23.66667 V 53.25 c 0,3.25417 2.6625,5.91667 5.91667,5.91667 h 26.625 c 2.45542,0 4.55583,-1.47917 5.44333,-3.60917 l 8.93417,-20.85625 c 0.26625,-0.68042 0.41417,-1.39042 0.41417,-2.15958 v -5.65042 l -0.02958,-0.02958 z" />
    </g>
    <defs
       id="defs22">
      <path
         vector-effect="non-scaling-stroke"
         d="m 0,59.16667 h 11.83333 v -35.5 H 0 Z M 65.08333,26.625 c 0,-3.25417 -2.6625,-5.91667 -5.91667,-5.91667 H 40.49958 L 43.31,7.18875 43.39875,6.24208 c 0,-1.21292 -0.50292,-2.33708 -1.30167,-3.13583 L 38.96125,0 19.49542,19.49542 C 18.40084,20.56042 17.75,22.03959 17.75,23.66667 V 53.25 c 0,3.25417 2.6625,5.91667 5.91667,5.91667 h 26.625 c 2.45542,0 4.55583,-1.47917 5.44333,-3.60917 l 8.93417,-20.85625 c 0.26625,-0.68042 0.41417,-1.39042 0.41417,-2.15958 v -5.65042 l -0.02958,-0.02958 z"
         id="path-1603316190548326" />
      <filter
         vector-effect="non-scaling-stroke"
         y="-0.13521126"
         x="-0.18437898"
         width="1.368758"
         id="filter-1603316190669344"
         height="1.4732394">
        <feFlood
           id="feFlood9"
           vector-effect="non-scaling-stroke"
           result="backgroundFix"
           flood-opacity="0" />
        <feColorMatrix
           id="feColorMatrix11"
           vector-effect="non-scaling-stroke"
           values="0 0 0 0 0 0 0 0 0 0 0 0 0 0 0 0 0 0 127 0"
           type="matrix"
           result="hardAlpha"
           in="SourceAlpha" />
        <feOffset
           id="feOffset13"
           vector-effect="non-scaling-stroke"
           dy="4"
           dx="0" />
        <feGaussianBlur
           id="feGaussianBlur15"
           vector-effect="non-scaling-stroke"
           stdDeviation="4.5" />
        <feColorMatrix
           id="feColorMatrix17"
           vector-effect="non-scaling-stroke"
           values="0 0 0 0 0.1803921568627451  0 0 0 0 0.9294117647058824  0 0 0 0 0.10980392156862745  0 0 0 0.3 0"
           type="matrix"
           result="" />
        <feBlend
           id="feBlend19"
           vector-effect="non-scaling-stroke"
           result="shadowOuter_1"
           mode="normal"
           in2="backgroundFix" />
      </filter>
    </defs>
  </g>
</svg>
