<?xml version="1.0" encoding="UTF-8"?>
<!DOCTYPE svg PUBLIC "-//W3C//DTD SVG 1.1//EN" "http://www.w3.org/Graphics/SVG/1.1/DTD/svg11.dtd">
<!-- Creator: CorelDRAW 2019 (64-Bit) -->
<svg xmlns="http://www.w3.org/2000/svg" xml:space="preserve" width="80px" height="80px" version="1.1" style="shape-rendering:geometricPrecision; text-rendering:geometricPrecision; image-rendering:optimizeQuality; fill-rule:evenodd; clip-rule:evenodd"
viewBox="0 0 800 800"
 xmlns:xlink="http://www.w3.org/1999/xlink">
 <defs>
  <style type="text/css">
   <![CDATA[
    .fil0 {fill:#E30613;fill-rule:nonzero}
   ]]>
  </style>
 </defs>
 <g id="Слой_x0020_1">
  <metadata id="CorelCorpID_0Corel-Layer"/>
  <g id="_2304365642880">
   <polygon class="fil0" points="25,453 782,453 782,377 25,377 "/>
   <polygon class="fil0" points="556,555 496,494 403,587 311,494 251,555 343,647 251,740 311,800 403,708 496,800 556,740 464,647 "/>
   <path class="fil0" d="M117 30l-30 -30c-93,93 -93,244 0,337l30 -30c-77,-77 -77,-202 0,-278z"/>
   <path class="fil0" d="M164 76l-30 -30c-67,67 -67,176 0,244l30 -30c-51,-51 -51,-134 0,-185z"/>
   <path class="fil0" d="M209 121l-29 -30c-42,42 -42,111 0,154l29 -30c-26,-26 -26,-69 0,-95z"/>
   <path class="fil0" d="M782 145l-392 0 0 -127 -94 46c-23,12 -22,17 -22,29l0 227 116 0 0 -89 392 0 0 -85z"/>
  </g>
 </g>
</svg>
