<svg version="1.2" xmlns="http://www.w3.org/2000/svg" xmlns:xlink="http://www.w3.org/1999/xlink" overflow="visible" preserveAspectRatio="none" viewBox="0 0 65.08334 59.16667" width="65.08334" height="59.16667"><g transform="translate(0, 0)"><g transform="translate(0, -4.440892098500626e-16) rotate(0)"><use xmlns:xlink="http://www.w3.org/1999/xlink" xlink:href="#path-1603316190548326" filter="url(#filter-1603316190669344)" vector-effect="non-scaling-stroke"/><path d="M0,59.16667h11.83333v-35.5h-11.83333zM65.08333,26.625c0,-3.25417 -2.6625,-5.91667 -5.91667,-5.91667h-18.66708l2.81042,-13.51958l0.08875,-0.94667c0,-1.21292 -0.50292,-2.33708 -1.30167,-3.13583l-3.13583,-3.10625l-19.46583,19.49542c-1.09458,1.065 -1.74542,2.54417 -1.74542,4.17125v29.58333c0,3.25417 2.6625,5.91667 5.91667,5.91667h26.625c2.45542,0 4.55583,-1.47917 5.44333,-3.60917l8.93417,-20.85625c0.26625,-0.68042 0.41417,-1.39042 0.41417,-2.15958v-5.65042l-0.02958,-0.02958z" style="stroke-width: 0; stroke-linecap: butt; stroke-linejoin: miter; fill: rgb(46, 237, 28);" vector-effect="non-scaling-stroke"/></g><defs><path id="path-1603316190548326" d="M0,59.16667h11.83333v-35.5h-11.83333zM65.08333,26.625c0,-3.25417 -2.6625,-5.91667 -5.91667,-5.91667h-18.66708l2.81042,-13.51958l0.08875,-0.94667c0,-1.21292 -0.50292,-2.33708 -1.30167,-3.13583l-3.13583,-3.10625l-19.46583,19.49542c-1.09458,1.065 -1.74542,2.54417 -1.74542,4.17125v29.58333c0,3.25417 2.6625,5.91667 5.91667,5.91667h26.625c2.45542,0 4.55583,-1.47917 5.44333,-3.60917l8.93417,-20.85625c0.26625,-0.68042 0.41417,-1.39042 0.41417,-2.15958v-5.65042l-0.02958,-0.02958z" vector-effect="non-scaling-stroke"/><filter height="147.32394099583433%" id="filter-1603316190669344" width="136.87579647879164%" x="-18.437898239395825%" y="-13.521125998809802%" vector-effect="non-scaling-stroke"><feFlood flood-opacity="0" result="backgroundFix" vector-effect="non-scaling-stroke"/><feColorMatrix in="SourceAlpha" result="hardAlpha" type="matrix" values="0 0 0 0 0 0 0 0 0 0 0 0 0 0 0 0 0 0 127 0" vector-effect="non-scaling-stroke"/><feOffset dx="0" dy="4" vector-effect="non-scaling-stroke"/><feGaussianBlur stdDeviation="4.5" vector-effect="non-scaling-stroke"/><feColorMatrix in="" result="" type="matrix" values="0 0 0 0 0.1803921568627451  0 0 0 0 0.9294117647058824  0 0 0 0 0.10980392156862745  0 0 0 0.3 0" vector-effect="non-scaling-stroke"/><feBlend in2="backgroundFix" mode="normal" result="shadowOuter_1" vector-effect="non-scaling-stroke"/></filter></defs></g></svg>