<svg version="1.2"
     xmlns="http://www.w3.org/2000/svg"
     xmlns:xlink="http://www.w3.org/1999/xlink"
     overflow="visible"
     preserveAspectRatio="none"
     viewBox="0 0 350 333"
     width="350"
     height="333">
  <defs>
    <style type="text/css">
      <![CDATA[
    .fil0 {opacity: 0.2;}
   ]]>
    </style>
  </defs>
  <g transform="translate(0, 0)" style="opacity: 0.6">
    <defs>
      <path class="fil0" id="path-16038274415016451"
            d="M-0.41455160744500863 192.39336322869949 C-0.41455160744500863 192.39336322869949 75.7445008460237 192.39336322869949 75.7445008460237 192.39336322869949 C75.7445008460237 192.39336322869949 20.194585448392576 248.420986547085 20.194585448392576 248.420986547085 C20.194585448392576 248.420986547085 41.81049069373945 270.2825112107621 41.81049069373945 270.2825112107621 C41.81049069373945 270.2825112107621 119.0947546531303 192.39336322869949 119.0947546531303 192.39336322869949 C119.0947546531303 192.39336322869949 159.36548223350258 192.39336322869949 159.36548223350258 192.39336322869949 C159.36548223350258 192.39336322869949 159.36548223350258 222.91587443946173 159.36548223350258 222.91587443946173 C159.36548223350258 222.91587443946173 82.08121827411173 300.80502242152437 82.08121827411173 300.80502242152437 C82.08121827411173 300.80502242152437 103.75634517766503 322.66654708520167 103.75634517766503 322.66654708520167 C103.75634517766503 322.66654708520167 159.36548223350258 266.5791928251118 159.36548223350258 266.5791928251118 C159.36548223350258 266.5791928251118 159.36548223350258 343.45291479820605 159.36548223350258 343.45291479820605 C159.36548223350258 343.45291479820605 189.98307952622682 343.45291479820605 189.98307952622682 343.45291479820605 C189.98307952622682 343.45291479820605 189.98307952622682 266.5791928251118 189.98307952622682 266.5791928251118 C189.98307952622682 266.5791928251118 245.532994923858 322.66654708520167 245.532994923858 322.66654708520167 C245.532994923858 322.66654708520167 267.2081218274114 300.80502242152437 267.2081218274114 300.80502242152437 C267.2081218274114 300.80502242152437 189.98307952622682 222.91587443946173 189.98307952622682 222.91587443946173 C189.98307952622682 222.91587443946173 189.98307952622682 192.39336322869949 189.98307952622682 192.39336322869949 C189.98307952622682 192.39336322869949 230.07614213197976 192.39336322869949 230.07614213197976 192.39336322869949 C230.07614213197976 192.39336322869949 308.36717428088014 271.2979372197307 308.36717428088014 271.2979372197307 C308.36717428088014 271.2979372197307 329.98307952622685 249.43641255605354 329.98307952622685 249.43641255605354 C329.98307952622685 249.43641255605354 273.42639593908643 192.39336322869949 273.42639593908643 192.39336322869949 C273.42639593908643 192.39336322869949 349.58544839255535 192.39336322869949 349.58544839255535 192.39336322869949 C349.58544839255535 192.39336322869949 349.58544839255535 161.5124663677129 349.58544839255535 161.5124663677129 C349.58544839255535 161.5124663677129 273.42639593908643 161.5124663677129 273.42639593908643 161.5124663677129 C273.42639593908643 161.5124663677129 328.97631133671774 105.42511210762326 328.97631133671774 105.42511210762326 C328.97631133671774 105.42511210762326 307.3011844331643 83.56358744394615 307.3011844331643 83.56358744394615 C307.3011844331643 83.56358744394615 230.07614213197976 161.5124663677129 230.07614213197976 161.5124663677129 C230.07614213197976 161.5124663677129 189.80541455160756 161.5124663677129 189.80541455160756 161.5124663677129 C189.80541455160756 161.5124663677129 189.80541455160756 130.9899551569506 189.80541455160756 130.9899551569506 C189.80541455160756 130.9899551569506 267.03045685279176 53.04107623318382 267.03045685279176 53.04107623318382 C267.03045685279176 53.04107623318382 245.35532994923864 31.239282511210735 245.35532994923864 31.239282511210735 C245.35532994923864 31.239282511210735 189.80541455160756 87.26690582959637 189.80541455160756 87.26690582959637 C189.80541455160756 87.26690582959637 189.80541455160756 10.452914798206278 189.80541455160756 10.452914798206278 C189.80541455160756 10.452914798206278 159.18781725888323 10.452914798206278 159.18781725888323 10.452914798206278 C159.18781725888323 10.452914798206278 159.18781725888323 87.26690582959637 159.18781725888323 87.26690582959637 C159.18781725888323 87.26690582959637 103.57868020304575 31.239282511210735 103.57868020304575 31.239282511210735 C103.57868020304575 31.239282511210735 81.90355329949246 53.04107623318382 81.90355329949246 53.04107623318382 C81.90355329949246 53.04107623318382 159.18781725888323 130.9899551569506 159.18781725888323 130.9899551569506 C159.18781725888323 130.9899551569506 159.18781725888323 161.5124663677129 159.18781725888323 161.5124663677129 C159.18781725888323 161.5124663677129 119.03553299492391 161.5124663677129 119.03553299492391 161.5124663677129 C119.03553299492391 161.5124663677129 40.80372250423015 82.60789237668158 40.80372250423015 82.60789237668158 C40.80372250423015 82.60789237668158 19.128595600676828 104.40968609865472 19.128595600676828 104.40968609865472 C19.128595600676828 104.40968609865472 75.7445008460237 161.5124663677129 75.7445008460237 161.5124663677129 C75.7445008460237 161.5124663677129 -0.41455160744500863 161.5124663677129 -0.41455160744500863 161.5124663677129 C-0.41455160744500863 161.5124663677129 -0.41455160744500863 192.39336322869949 -0.41455160744500863 192.39336322869949 Z" vector-effect="non-scaling-stroke"/></defs><g transform="translate(0.41455160744500863, -10.452914798206278)"><path d="M-0.41455160744500863 192.39336322869949 C-0.41455160744500863 192.39336322869949 75.7445008460237 192.39336322869949 75.7445008460237 192.39336322869949 C75.7445008460237 192.39336322869949 20.194585448392576 248.420986547085 20.194585448392576 248.420986547085 C20.194585448392576 248.420986547085 41.81049069373945 270.2825112107621 41.81049069373945 270.2825112107621 C41.81049069373945 270.2825112107621 119.0947546531303 192.39336322869949 119.0947546531303 192.39336322869949 C119.0947546531303 192.39336322869949 159.36548223350258 192.39336322869949 159.36548223350258 192.39336322869949 C159.36548223350258 192.39336322869949 159.36548223350258 222.91587443946173 159.36548223350258 222.91587443946173 C159.36548223350258 222.91587443946173 82.08121827411173 300.80502242152437 82.08121827411173 300.80502242152437 C82.08121827411173 300.80502242152437 103.75634517766503 322.66654708520167 103.75634517766503 322.66654708520167 C103.75634517766503 322.66654708520167 159.36548223350258 266.5791928251118 159.36548223350258 266.5791928251118 C159.36548223350258 266.5791928251118 159.36548223350258 343.45291479820605 159.36548223350258 343.45291479820605 C159.36548223350258 343.45291479820605 189.98307952622682 343.45291479820605 189.98307952622682 343.45291479820605 C189.98307952622682 343.45291479820605 189.98307952622682 266.5791928251118 189.98307952622682 266.5791928251118 C189.98307952622682 266.5791928251118 245.532994923858 322.66654708520167 245.532994923858 322.66654708520167 C245.532994923858 322.66654708520167 267.2081218274114 300.80502242152437 267.2081218274114 300.80502242152437 C267.2081218274114 300.80502242152437 189.98307952622682 222.91587443946173 189.98307952622682 222.91587443946173 C189.98307952622682 222.91587443946173 189.98307952622682 192.39336322869949 189.98307952622682 192.39336322869949 C189.98307952622682 192.39336322869949 230.07614213197976 192.39336322869949 230.07614213197976 192.39336322869949 C230.07614213197976 192.39336322869949 308.36717428088014 271.2979372197307 308.36717428088014 271.2979372197307 C308.36717428088014 271.2979372197307 329.98307952622685 249.43641255605354 329.98307952622685 249.43641255605354 C329.98307952622685 249.43641255605354 273.42639593908643 192.39336322869949 273.42639593908643 192.39336322869949 C273.42639593908643 192.39336322869949 349.58544839255535 192.39336322869949 349.58544839255535 192.39336322869949 C349.58544839255535 192.39336322869949 349.58544839255535 161.5124663677129 349.58544839255535 161.5124663677129 C349.58544839255535 161.5124663677129 273.42639593908643 161.5124663677129 273.42639593908643 161.5124663677129 C273.42639593908643 161.5124663677129 328.97631133671774 105.42511210762326 328.97631133671774 105.42511210762326 C328.97631133671774 105.42511210762326 307.3011844331643 83.56358744394615 307.3011844331643 83.56358744394615 C307.3011844331643 83.56358744394615 230.07614213197976 161.5124663677129 230.07614213197976 161.5124663677129 C230.07614213197976 161.5124663677129 189.80541455160756 161.5124663677129 189.80541455160756 161.5124663677129 C189.80541455160756 161.5124663677129 189.80541455160756 130.9899551569506 189.80541455160756 130.9899551569506 C189.80541455160756 130.9899551569506 267.03045685279176 53.04107623318382 267.03045685279176 53.04107623318382 C267.03045685279176 53.04107623318382 245.35532994923864 31.239282511210735 245.35532994923864 31.239282511210735 C245.35532994923864 31.239282511210735 189.80541455160756 87.26690582959637 189.80541455160756 87.26690582959637 C189.80541455160756 87.26690582959637 189.80541455160756 10.452914798206278 189.80541455160756 10.452914798206278 C189.80541455160756 10.452914798206278 159.18781725888323 10.452914798206278 159.18781725888323 10.452914798206278 C159.18781725888323 10.452914798206278 159.18781725888323 87.26690582959637 159.18781725888323 87.26690582959637 C159.18781725888323 87.26690582959637 103.57868020304575 31.239282511210735 103.57868020304575 31.239282511210735 C103.57868020304575 31.239282511210735 81.90355329949246 53.04107623318382 81.90355329949246 53.04107623318382 C81.90355329949246 53.04107623318382 159.18781725888323 130.9899551569506 159.18781725888323 130.9899551569506 C159.18781725888323 130.9899551569506 159.18781725888323 161.5124663677129 159.18781725888323 161.5124663677129 C159.18781725888323 161.5124663677129 119.03553299492391 161.5124663677129 119.03553299492391 161.5124663677129 C119.03553299492391 161.5124663677129 40.80372250423015 82.60789237668158 40.80372250423015 82.60789237668158 C40.80372250423015 82.60789237668158 19.128595600676828 104.40968609865472 19.128595600676828 104.40968609865472 C19.128595600676828 104.40968609865472 75.7445008460237 161.5124663677129 75.7445008460237 161.5124663677129 C75.7445008460237 161.5124663677129 -0.41455160744500863 161.5124663677129 -0.41455160744500863 161.5124663677129 C-0.41455160744500863 161.5124663677129 -0.41455160744500863 192.39336322869949 -0.41455160744500863 192.39336322869949 Z" style="stroke-width: 0; stroke-linecap: butt; stroke-linejoin: miter; fill: rgb(255, 255, 255);" vector-effect="non-scaling-stroke"/>
  </g>
  </g>
</svg>
