<?xml version="1.0" encoding="UTF-8"?>
<!DOCTYPE svg PUBLIC "-//W3C//DTD SVG 1.1//EN" "http://www.w3.org/Graphics/SVG/1.1/DTD/svg11.dtd">
<!-- Creator: CorelDRAW 2019 (64-Bit) -->
<svg xmlns="http://www.w3.org/2000/svg" xml:space="preserve" width="1004px" height="1004px" version="1.1" style="shape-rendering:geometricPrecision; text-rendering:geometricPrecision; image-rendering:optimizeQuality; fill-rule:evenodd; clip-rule:evenodd"
viewBox="0 0 10040 10040"
 xmlns:xlink="http://www.w3.org/1999/xlink">
 <defs>
  <style type="text/css">
   <![CDATA[
    .fil0 {fill:#FFFFFF;fill-rule:nonzero}
   ]]>
  </style>
 </defs>
 <g id="Слой_x0020_1">
  <metadata id="CorelCorpID_0Corel-Layer"/>
  <g id="_2350975236912">
   <path class="fil0" d="M5021 1737c140,0 278,10 413,29l0 -1733 -827 0 0 1733c135,-19 273,-29 414,-29z"/>
   <path class="fil0" d="M7329 2838l1171 -1347 -624 -542 -1153 1326c227,159 431,349 605,564z"/>
   <path class="fil0" d="M3315 2276l-1155 -1328 -624 543 1174 1350c175,-215 378,-405 605,-564z"/>
   <path class="fil0" d="M7557 4709l-827 0c0,-944 -768,-1712 -1712,-1712 -944,0 -1712,768 -1712,1712l-827 0c0,-1400 1139,-2539 2539,-2539 1400,0 2539,1139 2539,2539z"/>
   <path class="fil0" d="M2049 4709c0,-285 41,-561 116,-822l-1868 0 0 822 1751 0z"/>
   <path class="fil0" d="M9744 4709l0 -822 -1867 0c75,261 116,537 116,822l1751 0z"/>
   <polygon class="fil0" points="9742,5139 295,5139 295,5966 2351,5966 851,7466 1436,8051 3520,5966 4607,5966 4607,6783 2523,8868 3107,9452 4607,7952 4607,10008 5434,10008 5434,7952 6934,9452 7519,8868 5434,6783 5434,5966 6517,5966 8629,8078 9213,7493 7686,5966 9742,5966 "/>
  </g>
 </g>
</svg>
